<mxfile host="app.diagrams.net" agent="Mozilla/5.0 (Windows NT 10.0; Win64; x64) AppleWebKit/537.36 (KHTML, like Gecko) Chrome/139.0.0.0 Safari/537.36" version="28.1.0">
  <diagram name="Page-1" id="ZDVHfeF25a7IwRaykqi0">
    <mxGraphModel dx="1938" dy="1073" grid="1" gridSize="10" guides="1" tooltips="1" connect="1" arrows="1" fold="1" page="1" pageScale="1" pageWidth="850" pageHeight="1100" math="0" shadow="0">
      <root>
        <mxCell id="0" />
        <mxCell id="1" parent="0" />
        <mxCell id="iclF5sOo6_w_ajEvv7lT-83" style="edgeStyle=orthogonalEdgeStyle;rounded=0;orthogonalLoop=1;jettySize=auto;html=1;" edge="1" parent="1" source="iclF5sOo6_w_ajEvv7lT-2" target="iclF5sOo6_w_ajEvv7lT-79">
          <mxGeometry relative="1" as="geometry" />
        </mxCell>
        <mxCell id="iclF5sOo6_w_ajEvv7lT-2" value="Start" style="ellipse;whiteSpace=wrap;html=1;fontSize=12;" vertex="1" parent="1">
          <mxGeometry x="412.5" y="80" width="85" height="30" as="geometry" />
        </mxCell>
        <mxCell id="iclF5sOo6_w_ajEvv7lT-4" value="" style="edgeStyle=orthogonalEdgeStyle;rounded=0;orthogonalLoop=1;jettySize=auto;html=1;" edge="1" parent="1" source="iclF5sOo6_w_ajEvv7lT-7" target="iclF5sOo6_w_ajEvv7lT-11">
          <mxGeometry relative="1" as="geometry" />
        </mxCell>
        <mxCell id="iclF5sOo6_w_ajEvv7lT-5" value="" style="edgeStyle=orthogonalEdgeStyle;rounded=0;orthogonalLoop=1;jettySize=auto;html=1;" edge="1" parent="1" source="iclF5sOo6_w_ajEvv7lT-7" target="iclF5sOo6_w_ajEvv7lT-14">
          <mxGeometry relative="1" as="geometry" />
        </mxCell>
        <mxCell id="iclF5sOo6_w_ajEvv7lT-76" value="" style="edgeStyle=orthogonalEdgeStyle;rounded=0;orthogonalLoop=1;jettySize=auto;html=1;" edge="1" parent="1" source="iclF5sOo6_w_ajEvv7lT-7" target="iclF5sOo6_w_ajEvv7lT-75">
          <mxGeometry relative="1" as="geometry" />
        </mxCell>
        <mxCell id="iclF5sOo6_w_ajEvv7lT-7" value="User selection" style="rhombus;whiteSpace=wrap;html=1;fontSize=12;" vertex="1" parent="1">
          <mxGeometry x="412.5" y="214.75" width="85" height="88.5" as="geometry" />
        </mxCell>
        <mxCell id="iclF5sOo6_w_ajEvv7lT-8" value="end" style="ellipse;whiteSpace=wrap;html=1;fontSize=12;" vertex="1" parent="1">
          <mxGeometry x="410" y="404" width="90" height="30" as="geometry" />
        </mxCell>
        <mxCell id="iclF5sOo6_w_ajEvv7lT-9" value="" style="edgeStyle=orthogonalEdgeStyle;rounded=0;orthogonalLoop=1;jettySize=auto;html=1;" edge="1" parent="1" source="iclF5sOo6_w_ajEvv7lT-11" target="iclF5sOo6_w_ajEvv7lT-16">
          <mxGeometry relative="1" as="geometry" />
        </mxCell>
        <mxCell id="iclF5sOo6_w_ajEvv7lT-11" value="Start (Run Cipher Interface)" style="whiteSpace=wrap;html=1;" vertex="1" parent="1">
          <mxGeometry x="310" y="234" width="70" height="50" as="geometry" />
        </mxCell>
        <mxCell id="iclF5sOo6_w_ajEvv7lT-13" value="" style="edgeStyle=orthogonalEdgeStyle;rounded=0;orthogonalLoop=1;jettySize=auto;html=1;" edge="1" parent="1" source="iclF5sOo6_w_ajEvv7lT-14" target="iclF5sOo6_w_ajEvv7lT-57">
          <mxGeometry relative="1" as="geometry" />
        </mxCell>
        <mxCell id="iclF5sOo6_w_ajEvv7lT-14" value="History (show history screen)" style="whiteSpace=wrap;html=1;" vertex="1" parent="1">
          <mxGeometry x="530" y="239" width="90" height="40" as="geometry" />
        </mxCell>
        <mxCell id="iclF5sOo6_w_ajEvv7lT-88" style="edgeStyle=orthogonalEdgeStyle;rounded=0;orthogonalLoop=1;jettySize=auto;html=1;entryX=0.5;entryY=0;entryDx=0;entryDy=0;" edge="1" parent="1" source="iclF5sOo6_w_ajEvv7lT-16" target="iclF5sOo6_w_ajEvv7lT-87">
          <mxGeometry relative="1" as="geometry" />
        </mxCell>
        <mxCell id="iclF5sOo6_w_ajEvv7lT-16" value="Open file dialog" style="rounded=1;whiteSpace=wrap;html=1;" vertex="1" parent="1">
          <mxGeometry x="192.75" y="244" width="85" height="40" as="geometry" />
        </mxCell>
        <mxCell id="iclF5sOo6_w_ajEvv7lT-117" style="edgeStyle=orthogonalEdgeStyle;rounded=0;orthogonalLoop=1;jettySize=auto;html=1;" edge="1" parent="1" source="iclF5sOo6_w_ajEvv7lT-20" target="iclF5sOo6_w_ajEvv7lT-113">
          <mxGeometry relative="1" as="geometry" />
        </mxCell>
        <mxCell id="iclF5sOo6_w_ajEvv7lT-20" value="display operation choice" style="rounded=0;whiteSpace=wrap;html=1;" vertex="1" parent="1">
          <mxGeometry x="170" y="424" width="105" height="40" as="geometry" />
        </mxCell>
        <mxCell id="iclF5sOo6_w_ajEvv7lT-22" value="Encrypt &#39;e&#39;" style="whiteSpace=wrap;html=1;rounded=0;" vertex="1" parent="1">
          <mxGeometry x="150" y="612.5" width="65" height="25" as="geometry" />
        </mxCell>
        <mxCell id="iclF5sOo6_w_ajEvv7lT-23" value="Decrypt &#39;d&#39;" style="whiteSpace=wrap;html=1;rounded=0;" vertex="1" parent="1">
          <mxGeometry x="239" y="615" width="60" height="20" as="geometry" />
        </mxCell>
        <mxCell id="iclF5sOo6_w_ajEvv7lT-24" value="" style="edgeStyle=orthogonalEdgeStyle;rounded=0;orthogonalLoop=1;jettySize=auto;html=1;" edge="1" parent="1" source="iclF5sOo6_w_ajEvv7lT-25" target="iclF5sOo6_w_ajEvv7lT-31">
          <mxGeometry relative="1" as="geometry" />
        </mxCell>
        <mxCell id="iclF5sOo6_w_ajEvv7lT-25" value="Load Animation" style="whiteSpace=wrap;html=1;rounded=0;" vertex="1" parent="1">
          <mxGeometry x="180" y="681.5" width="62.5" height="40" as="geometry" />
        </mxCell>
        <mxCell id="iclF5sOo6_w_ajEvv7lT-28" value="" style="endArrow=classic;html=1;rounded=0;exitX=0.576;exitY=0.931;exitDx=0;exitDy=0;exitPerimeter=0;entryX=0.425;entryY=0.018;entryDx=0;entryDy=0;entryPerimeter=0;" edge="1" parent="1" source="iclF5sOo6_w_ajEvv7lT-22" target="iclF5sOo6_w_ajEvv7lT-25">
          <mxGeometry width="50" height="50" relative="1" as="geometry">
            <mxPoint x="253.75" y="621.5" as="sourcePoint" />
            <mxPoint x="293.75" y="641.5" as="targetPoint" />
          </mxGeometry>
        </mxCell>
        <mxCell id="iclF5sOo6_w_ajEvv7lT-29" value="" style="endArrow=classic;html=1;rounded=0;entryX=0.434;entryY=0.089;entryDx=0;entryDy=0;entryPerimeter=0;exitX=0.5;exitY=1;exitDx=0;exitDy=0;" edge="1" parent="1" source="iclF5sOo6_w_ajEvv7lT-23" target="iclF5sOo6_w_ajEvv7lT-25">
          <mxGeometry width="50" height="50" relative="1" as="geometry">
            <mxPoint x="293.75" y="621.5" as="sourcePoint" />
            <mxPoint x="333.75" y="641.5" as="targetPoint" />
          </mxGeometry>
        </mxCell>
        <mxCell id="iclF5sOo6_w_ajEvv7lT-30" value="" style="edgeStyle=orthogonalEdgeStyle;rounded=0;orthogonalLoop=1;jettySize=auto;html=1;" edge="1" parent="1" source="iclF5sOo6_w_ajEvv7lT-31" target="iclF5sOo6_w_ajEvv7lT-33">
          <mxGeometry relative="1" as="geometry" />
        </mxCell>
        <mxCell id="iclF5sOo6_w_ajEvv7lT-31" value="process file" style="whiteSpace=wrap;html=1;rounded=0;" vertex="1" parent="1">
          <mxGeometry x="175" y="741.5" width="72.5" height="20" as="geometry" />
        </mxCell>
        <mxCell id="iclF5sOo6_w_ajEvv7lT-32" value="" style="edgeStyle=orthogonalEdgeStyle;rounded=0;orthogonalLoop=1;jettySize=auto;html=1;" edge="1" parent="1" source="iclF5sOo6_w_ajEvv7lT-33" target="iclF5sOo6_w_ajEvv7lT-35">
          <mxGeometry relative="1" as="geometry" />
        </mxCell>
        <mxCell id="iclF5sOo6_w_ajEvv7lT-33" value="&lt;font&gt;Apply Caesar cipher&amp;nbsp;&lt;/font&gt;" style="whiteSpace=wrap;html=1;rounded=0;" vertex="1" parent="1">
          <mxGeometry x="160.63" y="781.5" width="101.25" height="30" as="geometry" />
        </mxCell>
        <mxCell id="iclF5sOo6_w_ajEvv7lT-34" value="" style="edgeStyle=orthogonalEdgeStyle;rounded=0;orthogonalLoop=1;jettySize=auto;html=1;" edge="1" parent="1" source="iclF5sOo6_w_ajEvv7lT-35" target="iclF5sOo6_w_ajEvv7lT-37">
          <mxGeometry relative="1" as="geometry" />
        </mxCell>
        <mxCell id="iclF5sOo6_w_ajEvv7lT-35" value="If Encrypt: +shift; If Decrypt: -shift" style="whiteSpace=wrap;html=1;rounded=0;" vertex="1" parent="1">
          <mxGeometry x="161.88" y="830" width="100" height="30" as="geometry" />
        </mxCell>
        <mxCell id="iclF5sOo6_w_ajEvv7lT-36" value="" style="edgeStyle=orthogonalEdgeStyle;rounded=0;orthogonalLoop=1;jettySize=auto;html=1;" edge="1" parent="1" source="iclF5sOo6_w_ajEvv7lT-37" target="iclF5sOo6_w_ajEvv7lT-38">
          <mxGeometry relative="1" as="geometry" />
        </mxCell>
        <mxCell id="iclF5sOo6_w_ajEvv7lT-37" value="Generate output path" style="whiteSpace=wrap;html=1;rounded=0;" vertex="1" parent="1">
          <mxGeometry x="156.25" y="880" width="115" height="30" as="geometry" />
        </mxCell>
        <mxCell id="iclF5sOo6_w_ajEvv7lT-38" value="Return success status" style="whiteSpace=wrap;html=1;rounded=0;" vertex="1" parent="1">
          <mxGeometry x="153.75" y="931.5" width="125" height="25" as="geometry" />
        </mxCell>
        <mxCell id="iclF5sOo6_w_ajEvv7lT-42" value="" style="edgeStyle=orthogonalEdgeStyle;rounded=0;orthogonalLoop=1;jettySize=auto;html=1;" edge="1" parent="1" source="iclF5sOo6_w_ajEvv7lT-43" target="iclF5sOo6_w_ajEvv7lT-49">
          <mxGeometry relative="1" as="geometry" />
        </mxCell>
        <mxCell id="iclF5sOo6_w_ajEvv7lT-43" value="log action to history" style="rounded=0;whiteSpace=wrap;html=1;" vertex="1" parent="1">
          <mxGeometry x="328.75" y="721.5" width="120" height="40" as="geometry" />
        </mxCell>
        <mxCell id="iclF5sOo6_w_ajEvv7lT-44" value="" style="edgeStyle=orthogonalEdgeStyle;rounded=0;orthogonalLoop=1;jettySize=auto;html=1;" edge="1" parent="1" source="iclF5sOo6_w_ajEvv7lT-45" target="iclF5sOo6_w_ajEvv7lT-47">
          <mxGeometry relative="1" as="geometry" />
        </mxCell>
        <mxCell id="iclF5sOo6_w_ajEvv7lT-45" value="show error message" style="rounded=0;whiteSpace=wrap;html=1;" vertex="1" parent="1">
          <mxGeometry x="496.25" y="647.5" width="80" height="40" as="geometry" />
        </mxCell>
        <mxCell id="iclF5sOo6_w_ajEvv7lT-47" value="play error sound" style="rounded=0;whiteSpace=wrap;html=1;" vertex="1" parent="1">
          <mxGeometry x="496.25" y="738.75" width="80" height="40" as="geometry" />
        </mxCell>
        <mxCell id="iclF5sOo6_w_ajEvv7lT-48" value="" style="edgeStyle=orthogonalEdgeStyle;rounded=0;orthogonalLoop=1;jettySize=auto;html=1;" edge="1" parent="1" source="iclF5sOo6_w_ajEvv7lT-49" target="iclF5sOo6_w_ajEvv7lT-50">
          <mxGeometry relative="1" as="geometry" />
        </mxCell>
        <mxCell id="iclF5sOo6_w_ajEvv7lT-49" value="show success message" style="rounded=0;whiteSpace=wrap;html=1;" vertex="1" parent="1">
          <mxGeometry x="328.75" y="790" width="120" height="40" as="geometry" />
        </mxCell>
        <mxCell id="iclF5sOo6_w_ajEvv7lT-50" value="play success sound" style="rounded=0;whiteSpace=wrap;html=1;" vertex="1" parent="1">
          <mxGeometry x="328.75" y="850" width="120" height="40" as="geometry" />
        </mxCell>
        <mxCell id="iclF5sOo6_w_ajEvv7lT-51" value="yes" style="text;html=1;align=center;verticalAlign=middle;whiteSpace=wrap;rounded=0;" vertex="1" parent="1">
          <mxGeometry x="185" y="394" width="30" height="10" as="geometry" />
        </mxCell>
        <mxCell id="iclF5sOo6_w_ajEvv7lT-52" value="no" style="text;html=1;align=center;verticalAlign=middle;whiteSpace=wrap;rounded=0;" vertex="1" parent="1">
          <mxGeometry x="123.75" y="303.25" width="30" height="10" as="geometry" />
        </mxCell>
        <mxCell id="iclF5sOo6_w_ajEvv7lT-92" style="edgeStyle=orthogonalEdgeStyle;rounded=0;orthogonalLoop=1;jettySize=auto;html=1;entryX=0.5;entryY=0;entryDx=0;entryDy=0;" edge="1" parent="1" source="iclF5sOo6_w_ajEvv7lT-57" target="iclF5sOo6_w_ajEvv7lT-106">
          <mxGeometry relative="1" as="geometry">
            <mxPoint x="575" y="394" as="targetPoint" />
          </mxGeometry>
        </mxCell>
        <mxCell id="iclF5sOo6_w_ajEvv7lT-57" value="open history.txt" style="whiteSpace=wrap;html=1;" vertex="1" parent="1">
          <mxGeometry x="530" y="313.25" width="90" height="40" as="geometry" />
        </mxCell>
        <mxCell id="iclF5sOo6_w_ajEvv7lT-59" value="" style="edgeStyle=orthogonalEdgeStyle;rounded=0;orthogonalLoop=1;jettySize=auto;html=1;" edge="1" parent="1" source="iclF5sOo6_w_ajEvv7lT-60" target="iclF5sOo6_w_ajEvv7lT-67">
          <mxGeometry relative="1" as="geometry">
            <Array as="points">
              <mxPoint x="515" y="570" />
              <mxPoint x="610" y="570" />
              <mxPoint x="610" y="669" />
            </Array>
          </mxGeometry>
        </mxCell>
        <mxCell id="iclF5sOo6_w_ajEvv7lT-60" value="display history entries" style="whiteSpace=wrap;html=1;" vertex="1" parent="1">
          <mxGeometry x="470" y="515" width="90" height="30" as="geometry" />
        </mxCell>
        <mxCell id="iclF5sOo6_w_ajEvv7lT-62" value="yes" style="text;html=1;align=center;verticalAlign=middle;whiteSpace=wrap;rounded=0;" vertex="1" parent="1">
          <mxGeometry x="540" y="454" width="30" height="10" as="geometry" />
        </mxCell>
        <mxCell id="iclF5sOo6_w_ajEvv7lT-64" value="" style="edgeStyle=orthogonalEdgeStyle;rounded=0;orthogonalLoop=1;jettySize=auto;html=1;" edge="1" parent="1" source="iclF5sOo6_w_ajEvv7lT-65" target="iclF5sOo6_w_ajEvv7lT-67">
          <mxGeometry relative="1" as="geometry" />
        </mxCell>
        <mxCell id="iclF5sOo6_w_ajEvv7lT-65" value="show no history message" style="whiteSpace=wrap;html=1;" vertex="1" parent="1">
          <mxGeometry x="640" y="515" width="90" height="30" as="geometry" />
        </mxCell>
        <mxCell id="iclF5sOo6_w_ajEvv7lT-66" value="no" style="text;html=1;align=center;verticalAlign=middle;whiteSpace=wrap;rounded=0;" vertex="1" parent="1">
          <mxGeometry x="610" y="470" width="30" height="10" as="geometry" />
        </mxCell>
        <mxCell id="iclF5sOo6_w_ajEvv7lT-67" value="wait for key press" style="whiteSpace=wrap;html=1;" vertex="1" parent="1">
          <mxGeometry x="640" y="653.75" width="90" height="30" as="geometry" />
        </mxCell>
        <mxCell id="iclF5sOo6_w_ajEvv7lT-70" value="yes" style="text;html=1;align=center;verticalAlign=middle;whiteSpace=wrap;rounded=0;" vertex="1" parent="1">
          <mxGeometry x="356.75" y="697.5" width="30" height="10" as="geometry" />
        </mxCell>
        <mxCell id="iclF5sOo6_w_ajEvv7lT-71" value="no" style="text;html=1;align=center;verticalAlign=middle;whiteSpace=wrap;rounded=0;" vertex="1" parent="1">
          <mxGeometry x="428.75" y="653.75" width="30" height="10" as="geometry" />
        </mxCell>
        <mxCell id="iclF5sOo6_w_ajEvv7lT-72" value="" style="endArrow=classic;html=1;rounded=0;exitX=1;exitY=0.5;exitDx=0;exitDy=0;" edge="1" parent="1" source="iclF5sOo6_w_ajEvv7lT-67" target="iclF5sOo6_w_ajEvv7lT-79">
          <mxGeometry width="50" height="50" relative="1" as="geometry">
            <mxPoint x="710" y="660" as="sourcePoint" />
            <mxPoint x="550" y="152" as="targetPoint" />
            <Array as="points">
              <mxPoint x="740" y="620" />
              <mxPoint x="740" y="580" />
              <mxPoint x="740" y="530" />
              <mxPoint x="740" y="440" />
              <mxPoint x="740" y="300" />
              <mxPoint x="740" y="220" />
              <mxPoint x="740" y="152" />
            </Array>
          </mxGeometry>
        </mxCell>
        <mxCell id="iclF5sOo6_w_ajEvv7lT-73" value="" style="endArrow=classic;html=1;rounded=0;exitX=1;exitY=0.5;exitDx=0;exitDy=0;entryX=0.5;entryY=1;entryDx=0;entryDy=0;" edge="1" parent="1" source="iclF5sOo6_w_ajEvv7lT-38" target="iclF5sOo6_w_ajEvv7lT-67">
          <mxGeometry width="50" height="50" relative="1" as="geometry">
            <mxPoint x="220" y="980" as="sourcePoint" />
            <mxPoint x="270" y="930" as="targetPoint" />
            <Array as="points">
              <mxPoint x="520" y="880" />
            </Array>
          </mxGeometry>
        </mxCell>
        <mxCell id="iclF5sOo6_w_ajEvv7lT-74" value="" style="endArrow=classic;html=1;rounded=0;exitX=0;exitY=0.5;exitDx=0;exitDy=0;entryX=0;entryY=0.5;entryDx=0;entryDy=0;" edge="1" parent="1" source="iclF5sOo6_w_ajEvv7lT-87" target="iclF5sOo6_w_ajEvv7lT-79">
          <mxGeometry width="50" height="50" relative="1" as="geometry">
            <mxPoint x="185" y="344" as="sourcePoint" />
            <mxPoint x="340" y="160" as="targetPoint" />
            <Array as="points">
              <mxPoint x="150" y="344" />
              <mxPoint x="150" y="250" />
              <mxPoint x="150" y="160" />
            </Array>
          </mxGeometry>
        </mxCell>
        <mxCell id="iclF5sOo6_w_ajEvv7lT-77" value="" style="edgeStyle=orthogonalEdgeStyle;rounded=0;orthogonalLoop=1;jettySize=auto;html=1;" edge="1" parent="1" source="iclF5sOo6_w_ajEvv7lT-75" target="iclF5sOo6_w_ajEvv7lT-8">
          <mxGeometry relative="1" as="geometry" />
        </mxCell>
        <mxCell id="iclF5sOo6_w_ajEvv7lT-75" value="exit" style="whiteSpace=wrap;html=1;" vertex="1" parent="1">
          <mxGeometry x="410" y="324" width="90" height="40" as="geometry" />
        </mxCell>
        <mxCell id="iclF5sOo6_w_ajEvv7lT-85" style="edgeStyle=orthogonalEdgeStyle;rounded=0;orthogonalLoop=1;jettySize=auto;html=1;" edge="1" parent="1" source="iclF5sOo6_w_ajEvv7lT-79" target="iclF5sOo6_w_ajEvv7lT-7">
          <mxGeometry relative="1" as="geometry" />
        </mxCell>
        <mxCell id="iclF5sOo6_w_ajEvv7lT-79" value="Display&lt;div&gt;Main menu&lt;/div&gt;" style="shape=parallelogram;perimeter=parallelogramPerimeter;whiteSpace=wrap;html=1;fixedSize=1;" vertex="1" parent="1">
          <mxGeometry x="398.75" y="140" width="112.5" height="40" as="geometry" />
        </mxCell>
        <mxCell id="iclF5sOo6_w_ajEvv7lT-87" value="file selection?" style="shape=parallelogram;perimeter=parallelogramPerimeter;whiteSpace=wrap;html=1;fixedSize=1;" vertex="1" parent="1">
          <mxGeometry x="179" y="330" width="112.5" height="40" as="geometry" />
        </mxCell>
        <mxCell id="iclF5sOo6_w_ajEvv7lT-89" style="edgeStyle=orthogonalEdgeStyle;rounded=0;orthogonalLoop=1;jettySize=auto;html=1;entryX=0.614;entryY=0.125;entryDx=0;entryDy=0;entryPerimeter=0;" edge="1" parent="1" source="iclF5sOo6_w_ajEvv7lT-87" target="iclF5sOo6_w_ajEvv7lT-20">
          <mxGeometry relative="1" as="geometry" />
        </mxCell>
        <mxCell id="iclF5sOo6_w_ajEvv7lT-93" style="edgeStyle=orthogonalEdgeStyle;rounded=0;orthogonalLoop=1;jettySize=auto;html=1;" edge="1" parent="1" target="iclF5sOo6_w_ajEvv7lT-60">
          <mxGeometry relative="1" as="geometry">
            <mxPoint x="570" y="434" as="sourcePoint" />
            <Array as="points">
              <mxPoint x="570" y="475" />
              <mxPoint x="515" y="475" />
            </Array>
          </mxGeometry>
        </mxCell>
        <mxCell id="iclF5sOo6_w_ajEvv7lT-105" value="" style="curved=1;endArrow=classic;html=1;rounded=0;entryX=0.126;entryY=0.449;entryDx=0;entryDy=0;entryPerimeter=0;" edge="1" parent="1" target="iclF5sOo6_w_ajEvv7lT-109">
          <mxGeometry width="50" height="50" relative="1" as="geometry">
            <mxPoint x="250" y="750" as="sourcePoint" />
            <mxPoint x="342.5" y="667.5" as="targetPoint" />
            <Array as="points">
              <mxPoint x="300" y="750" />
              <mxPoint x="250" y="700" />
            </Array>
          </mxGeometry>
        </mxCell>
        <mxCell id="iclF5sOo6_w_ajEvv7lT-108" style="edgeStyle=orthogonalEdgeStyle;rounded=0;orthogonalLoop=1;jettySize=auto;html=1;entryX=0.5;entryY=0;entryDx=0;entryDy=0;" edge="1" parent="1" source="iclF5sOo6_w_ajEvv7lT-106" target="iclF5sOo6_w_ajEvv7lT-65">
          <mxGeometry relative="1" as="geometry" />
        </mxCell>
        <mxCell id="iclF5sOo6_w_ajEvv7lT-106" value="file exist?" style="rhombus;whiteSpace=wrap;html=1;" vertex="1" parent="1">
          <mxGeometry x="560" y="389" width="80" height="80" as="geometry" />
        </mxCell>
        <mxCell id="iclF5sOo6_w_ajEvv7lT-111" style="edgeStyle=orthogonalEdgeStyle;rounded=0;orthogonalLoop=1;jettySize=auto;html=1;" edge="1" parent="1" source="iclF5sOo6_w_ajEvv7lT-109" target="iclF5sOo6_w_ajEvv7lT-43">
          <mxGeometry relative="1" as="geometry" />
        </mxCell>
        <mxCell id="iclF5sOo6_w_ajEvv7lT-112" style="edgeStyle=orthogonalEdgeStyle;rounded=0;orthogonalLoop=1;jettySize=auto;html=1;" edge="1" parent="1" source="iclF5sOo6_w_ajEvv7lT-109" target="iclF5sOo6_w_ajEvv7lT-45">
          <mxGeometry relative="1" as="geometry" />
        </mxCell>
        <mxCell id="iclF5sOo6_w_ajEvv7lT-109" value="Success?" style="rhombus;whiteSpace=wrap;html=1;" vertex="1" parent="1">
          <mxGeometry x="348.75" y="600" width="80" height="80" as="geometry" />
        </mxCell>
        <mxCell id="iclF5sOo6_w_ajEvv7lT-118" style="edgeStyle=orthogonalEdgeStyle;rounded=0;orthogonalLoop=1;jettySize=auto;html=1;" edge="1" parent="1" source="iclF5sOo6_w_ajEvv7lT-113" target="iclF5sOo6_w_ajEvv7lT-22">
          <mxGeometry relative="1" as="geometry" />
        </mxCell>
        <mxCell id="iclF5sOo6_w_ajEvv7lT-119" style="edgeStyle=orthogonalEdgeStyle;rounded=0;orthogonalLoop=1;jettySize=auto;html=1;entryX=0.75;entryY=0;entryDx=0;entryDy=0;" edge="1" parent="1" source="iclF5sOo6_w_ajEvv7lT-113" target="iclF5sOo6_w_ajEvv7lT-23">
          <mxGeometry relative="1" as="geometry" />
        </mxCell>
        <mxCell id="iclF5sOo6_w_ajEvv7lT-113" value="User Choice" style="rhombus;whiteSpace=wrap;html=1;" vertex="1" parent="1">
          <mxGeometry x="185" y="490" width="80" height="80" as="geometry" />
        </mxCell>
      </root>
    </mxGraphModel>
  </diagram>
</mxfile>
